<svg id="visual" viewBox="0 0 2560 200" width="2560" height="200" xmlns="http://www.w3.org/2000/svg" xmlns:xlink="http://www.w3.org/1999/xlink" version="1.1"><rect x="0" y="0" width="2560" height="200" fill="#1CAF8A"></rect><path d="M0 128L53.3 123.2C106.7 118.3 213.3 108.7 320 110.7C426.7 112.7 533.3 126.3 640 130.7C746.7 135 853.3 130 960 128C1066.7 126 1173.3 127 1280 115.2C1386.7 103.3 1493.3 78.7 1600 79.8C1706.7 81 1813.3 108 1920 114.8C2026.7 121.7 2133.3 108.3 2240 105.3C2346.7 102.3 2453.3 109.7 2506.7 113.3L2560 117L2560 0L2506.7 0C2453.3 0 2346.7 0 2240 0C2133.3 0 2026.7 0 1920 0C1813.3 0 1706.7 0 1600 0C1493.3 0 1386.7 0 1280 0C1173.3 0 1066.7 0 960 0C853.3 0 746.7 0 640 0C533.3 0 426.7 0 320 0C213.3 0 106.7 0 53.3 0L0 0Z" fill="#202A3F" stroke-linecap="round" stroke-linejoin="miter"></path></svg>