<svg id="visual" viewBox="0 0 1600 150" width="1600" height="150" xmlns="http://www.w3.org/2000/svg" xmlns:xlink="http://www.w3.org/1999/xlink" version="1.1"><rect x="0" y="0" width="1600" height="150" fill="#1CAF8A"></rect><path d="M0 112L38.2 114.3C76.3 116.7 152.7 121.3 228.8 120.3C305 119.3 381 112.7 457.2 107.2C533.3 101.7 609.7 97.3 685.8 100.2C762 103 838 113 914.2 117.3C990.3 121.7 1066.7 120.3 1142.8 116C1219 111.7 1295 104.3 1371.2 104.3C1447.3 104.3 1523.7 111.7 1561.8 115.3L1600 119L1600 151L1561.8 151C1523.7 151 1447.3 151 1371.2 151C1295 151 1219 151 1142.8 151C1066.7 151 990.3 151 914.2 151C838 151 762 151 685.8 151C609.7 151 533.3 151 457.2 151C381 151 305 151 228.8 151C152.7 151 76.3 151 38.2 151L0 151Z" fill="#202A3F" stroke-linecap="round" stroke-linejoin="miter"></path></svg>