<svg id="visual" viewBox="0 0 2560 500" width="2560" height="500" xmlns="http://www.w3.org/2000/svg" xmlns:xlink="http://www.w3.org/1999/xlink" version="1.1"><rect x="0" y="0" width="2560" height="500" fill="#1CAF8A"></rect><path d="M0 394L61 381.5C122 369 244 344 365.8 341C487.7 338 609.3 357 731.2 373.2C853 389.3 975 402.7 1097 394.7C1219 386.7 1341 357.3 1463 355.2C1585 353 1707 378 1828.8 375.8C1950.7 373.7 2072.3 344.3 2194.2 335.7C2316 327 2438 339 2499 345L2560 351L2560 501L2499 501C2438 501 2316 501 2194.2 501C2072.3 501 1950.7 501 1828.8 501C1707 501 1585 501 1463 501C1341 501 1219 501 1097 501C975 501 853 501 731.2 501C609.3 501 487.7 501 365.8 501C244 501 122 501 61 501L0 501Z" fill="#202A3F" stroke-linecap="round" stroke-linejoin="miter"></path></svg>