<svg id="visual" viewBox="0 0 2560 200" width="2560" height="200" xmlns="http://www.w3.org/2000/svg" xmlns:xlink="http://www.w3.org/1999/xlink" version="1.1"><rect x="0" y="0" width="2560" height="200" fill="#202A3F"></rect><path d="M0 109L53.3 115C106.7 121 213.3 133 320 129.7C426.7 126.3 533.3 107.7 640 91.8C746.7 76 853.3 63 960 63.3C1066.7 63.7 1173.3 77.3 1280 92C1386.7 106.7 1493.3 122.3 1600 123.7C1706.7 125 1813.3 112 1920 104.8C2026.7 97.7 2133.3 96.3 2240 88C2346.7 79.7 2453.3 64.3 2506.7 56.7L2560 49L2560 0L2506.7 0C2453.3 0 2346.7 0 2240 0C2133.3 0 2026.7 0 1920 0C1813.3 0 1706.7 0 1600 0C1493.3 0 1386.7 0 1280 0C1173.3 0 1066.7 0 960 0C853.3 0 746.7 0 640 0C533.3 0 426.7 0 320 0C213.3 0 106.7 0 53.3 0L0 0Z" fill="#1CAF8A" stroke-linecap="round" stroke-linejoin="miter"></path></svg>